<svg width="48" height="48" viewBox="0 0 48 48" fill="none" xmlns="http://www.w3.org/2000/svg">
<rect width="48" height="48" rx="16" fill="#166FF6"/>
<path d="M18.3628 24.694C18.7174 24.694 19.0254 24.6497 19.2868 24.561C19.5528 24.4723 19.7698 24.351 19.9378 24.197C20.1104 24.0383 20.2388 23.8517 20.3228 23.637C20.4068 23.4223 20.4488 23.1867 20.4488 22.93C20.4488 22.4167 20.2784 22.0223 19.9378 21.747C19.6018 21.4717 19.0861 21.334 18.3908 21.334H17.1868V24.694H18.3628ZM23.2068 30H21.5058C21.1838 30 20.9504 29.874 20.8058 29.622L18.6778 26.381C18.5984 26.2597 18.5098 26.1733 18.4118 26.122C18.3184 26.0707 18.1784 26.045 17.9918 26.045H17.1868V30H15.3038V19.878H18.3908C19.0768 19.878 19.6648 19.9503 20.1548 20.095C20.6494 20.235 21.0531 20.4333 21.3658 20.69C21.6831 20.9467 21.9164 21.2547 22.0658 21.614C22.2151 21.9687 22.2898 22.3607 22.2898 22.79C22.2898 23.1307 22.2384 23.4527 22.1358 23.756C22.0378 24.0593 21.8931 24.3347 21.7018 24.582C21.5151 24.8293 21.2818 25.0463 21.0018 25.233C20.7264 25.4197 20.4114 25.5667 20.0568 25.674C20.1781 25.744 20.2901 25.828 20.3928 25.926C20.4954 26.0193 20.5888 26.1313 20.6728 26.262L23.2068 30ZM33.2879 24.939C33.2879 25.681 33.1642 26.3623 32.9169 26.983C32.6695 27.6037 32.3219 28.138 31.8739 28.586C31.4259 29.034 30.8869 29.3817 30.2569 29.629C29.6269 29.8763 28.9269 30 28.1569 30H24.2999V19.878H28.1569C28.9269 19.878 29.6269 20.004 30.2569 20.256C30.8869 20.5033 31.4259 20.851 31.8739 21.299C32.3219 21.7423 32.6695 22.2743 32.9169 22.895C33.1642 23.5157 33.2879 24.197 33.2879 24.939ZM31.3559 24.939C31.3559 24.3837 31.2812 23.8867 31.1319 23.448C30.9872 23.0047 30.7749 22.6313 30.4949 22.328C30.2195 22.02 29.8835 21.7843 29.4869 21.621C29.0949 21.4577 28.6515 21.376 28.1569 21.376H26.1899V28.502H28.1569C28.6515 28.502 29.0949 28.4203 29.4869 28.257C29.8835 28.0937 30.2195 27.8603 30.4949 27.557C30.7749 27.249 30.9872 26.8757 31.1319 26.437C31.2812 25.9937 31.3559 25.4943 31.3559 24.939Z" fill="white"/>
</svg>
